<mxfile host="app.diagrams.net" modified="2024-04-06T08:45:02.568Z" agent="Mozilla/5.0 (Windows NT 10.0; Win64; x64) AppleWebKit/537.36 (KHTML, like Gecko) Chrome/123.0.0.0 Safari/537.36" etag="msKrnGxXAtmF62BstZpd" version="24.2.0" type="device">
  <diagram name="Page-1" id="_x98dY9ZcwH1jBAHzvjr">
    <mxGraphModel dx="2602" dy="1165" grid="1" gridSize="10" guides="1" tooltips="1" connect="1" arrows="1" fold="1" page="0" pageScale="1" pageWidth="827" pageHeight="1169" math="0" shadow="0">
      <root>
        <mxCell id="0" />
        <mxCell id="1" parent="0" />
        <mxCell id="DyLD08-vMLnyXxfXKmFI-63" style="edgeStyle=orthogonalEdgeStyle;shape=connector;rounded=0;orthogonalLoop=1;jettySize=auto;html=1;exitX=0.75;exitY=1;exitDx=0;exitDy=0;entryX=0.75;entryY=0;entryDx=0;entryDy=0;labelBackgroundColor=default;strokeColor=default;align=center;verticalAlign=middle;fontFamily=Helvetica;fontSize=12;fontColor=default;endArrow=classic;startSize=8;endSize=8;" parent="1" edge="1">
          <mxGeometry relative="1" as="geometry">
            <mxPoint x="-59" y="118" as="sourcePoint" />
            <mxPoint x="-58" y="279" as="targetPoint" />
          </mxGeometry>
        </mxCell>
        <mxCell id="DyLD08-vMLnyXxfXKmFI-64" value="&lt;font style=&quot;font-size: 16px;&quot;&gt;items-all&lt;/font&gt;" style="edgeLabel;html=1;align=center;verticalAlign=middle;resizable=0;points=[];fontFamily=Helvetica;fontSize=12;fontColor=default;" parent="DyLD08-vMLnyXxfXKmFI-63" vertex="1" connectable="0">
          <mxGeometry x="-0.0418" y="2" relative="1" as="geometry">
            <mxPoint x="10" as="offset" />
          </mxGeometry>
        </mxCell>
        <mxCell id="DyLD08-vMLnyXxfXKmFI-2" value="Catalogue&lt;br&gt;Collection" style="rounded=0;whiteSpace=wrap;html=1;fontSize=16;" parent="1" vertex="1">
          <mxGeometry x="-135" y="55" width="120" height="60" as="geometry" />
        </mxCell>
        <mxCell id="DyLD08-vMLnyXxfXKmFI-19" value="" style="endArrow=classic;startArrow=classic;html=1;rounded=0;fontSize=12;curved=1;startSize=8;endSize=8;exitX=1;exitY=0.5;exitDx=0;exitDy=0;entryX=0;entryY=0.5;entryDx=0;entryDy=0;" parent="1" target="DyLD08-vMLnyXxfXKmFI-2" edge="1">
          <mxGeometry width="50" height="50" relative="1" as="geometry">
            <mxPoint x="-246" y="85" as="sourcePoint" />
            <mxPoint x="-101" y="207" as="targetPoint" />
          </mxGeometry>
        </mxCell>
        <mxCell id="DyLD08-vMLnyXxfXKmFI-20" value="item/&lt;br&gt;collection" style="edgeLabel;html=1;align=center;verticalAlign=middle;resizable=0;points=[];fontSize=16;" parent="DyLD08-vMLnyXxfXKmFI-19" vertex="1" connectable="0">
          <mxGeometry x="-0.1271" y="-1" relative="1" as="geometry">
            <mxPoint x="8" y="-22" as="offset" />
          </mxGeometry>
        </mxCell>
        <mxCell id="DyLD08-vMLnyXxfXKmFI-58" style="edgeStyle=orthogonalEdgeStyle;rounded=0;orthogonalLoop=1;jettySize=auto;html=1;exitX=0.75;exitY=0;exitDx=0;exitDy=0;fontSize=12;startSize=8;endSize=8;" parent="1" source="DyLD08-vMLnyXxfXKmFI-29" target="DyLD08-vMLnyXxfXKmFI-2" edge="1">
          <mxGeometry relative="1" as="geometry">
            <Array as="points">
              <mxPoint x="-275" y="250" />
              <mxPoint x="-75" y="250" />
            </Array>
          </mxGeometry>
        </mxCell>
        <mxCell id="DyLD08-vMLnyXxfXKmFI-61" value="&lt;font style=&quot;font-size: 16px;&quot;&gt;catalogue-all&lt;/font&gt;" style="edgeLabel;html=1;align=center;verticalAlign=middle;resizable=0;points=[];fontFamily=Helvetica;fontSize=12;fontColor=default;" parent="DyLD08-vMLnyXxfXKmFI-58" vertex="1" connectable="0">
          <mxGeometry x="-0.3907" relative="1" as="geometry">
            <mxPoint as="offset" />
          </mxGeometry>
        </mxCell>
        <mxCell id="DyLD08-vMLnyXxfXKmFI-115" style="edgeStyle=orthogonalEdgeStyle;shape=connector;rounded=0;orthogonalLoop=1;jettySize=auto;html=1;exitX=0.25;exitY=1;exitDx=0;exitDy=0;entryX=0.5;entryY=1;entryDx=0;entryDy=0;labelBackgroundColor=default;strokeColor=default;align=center;verticalAlign=middle;fontFamily=Helvetica;fontSize=12;fontColor=default;endArrow=classic;startSize=8;endSize=8;" parent="1" source="DyLD08-vMLnyXxfXKmFI-29" target="DyLD08-vMLnyXxfXKmFI-94" edge="1">
          <mxGeometry relative="1" as="geometry" />
        </mxCell>
        <mxCell id="mo2YGIKd-5UnRuoaPbzB-15" style="edgeStyle=orthogonalEdgeStyle;rounded=0;orthogonalLoop=1;jettySize=auto;html=1;exitX=0;exitY=0.75;exitDx=0;exitDy=0;entryX=0;entryY=0.5;entryDx=0;entryDy=0;" parent="1" source="DyLD08-vMLnyXxfXKmFI-29" target="mo2YGIKd-5UnRuoaPbzB-3" edge="1">
          <mxGeometry relative="1" as="geometry">
            <Array as="points">
              <mxPoint x="-460" y="321" />
              <mxPoint x="-460" y="-220" />
            </Array>
          </mxGeometry>
        </mxCell>
        <mxCell id="mo2YGIKd-5UnRuoaPbzB-16" value="&lt;font style=&quot;font-size: 16px;&quot;&gt;catalogue-item-all&lt;/font&gt;" style="edgeLabel;html=1;align=center;verticalAlign=middle;resizable=0;points=[];" parent="mo2YGIKd-5UnRuoaPbzB-15" vertex="1" connectable="0">
          <mxGeometry x="-0.3837" y="4" relative="1" as="geometry">
            <mxPoint as="offset" />
          </mxGeometry>
        </mxCell>
        <mxCell id="mo2YGIKd-5UnRuoaPbzB-18" style="edgeStyle=orthogonalEdgeStyle;rounded=0;orthogonalLoop=1;jettySize=auto;html=1;exitX=0;exitY=1;exitDx=0;exitDy=0;entryX=0;entryY=0.5;entryDx=0;entryDy=0;" parent="1" source="DyLD08-vMLnyXxfXKmFI-29" target="mo2YGIKd-5UnRuoaPbzB-6" edge="1">
          <mxGeometry relative="1" as="geometry" />
        </mxCell>
        <mxCell id="mo2YGIKd-5UnRuoaPbzB-20" value="&lt;font style=&quot;font-size: 16px;&quot;&gt;stock-item-all&lt;/font&gt;" style="edgeLabel;html=1;align=center;verticalAlign=middle;resizable=0;points=[];" parent="mo2YGIKd-5UnRuoaPbzB-18" vertex="1" connectable="0">
          <mxGeometry x="0.8603" relative="1" as="geometry">
            <mxPoint x="-64" as="offset" />
          </mxGeometry>
        </mxCell>
        <mxCell id="DyLD08-vMLnyXxfXKmFI-29" value="Item" style="rounded=0;whiteSpace=wrap;html=1;fontSize=16;" parent="1" vertex="1">
          <mxGeometry x="-365" y="276" width="120" height="60" as="geometry" />
        </mxCell>
        <mxCell id="DyLD08-vMLnyXxfXKmFI-60" style="edgeStyle=orthogonalEdgeStyle;shape=connector;rounded=0;orthogonalLoop=1;jettySize=auto;html=1;exitX=0.5;exitY=0;exitDx=0;exitDy=0;labelBackgroundColor=default;strokeColor=default;align=center;verticalAlign=middle;fontFamily=Helvetica;fontSize=12;fontColor=default;endArrow=classic;startSize=8;endSize=8;" parent="1" source="DyLD08-vMLnyXxfXKmFI-30" target="DyLD08-vMLnyXxfXKmFI-2" edge="1">
          <mxGeometry relative="1" as="geometry" />
        </mxCell>
        <mxCell id="DyLD08-vMLnyXxfXKmFI-110" style="edgeStyle=orthogonalEdgeStyle;shape=connector;rounded=0;orthogonalLoop=1;jettySize=auto;html=1;exitX=0.25;exitY=1;exitDx=0;exitDy=0;entryX=0.5;entryY=1;entryDx=0;entryDy=0;labelBackgroundColor=default;strokeColor=default;align=center;verticalAlign=middle;fontFamily=Helvetica;fontSize=12;fontColor=default;endArrow=classic;startSize=8;endSize=8;" parent="1" source="DyLD08-vMLnyXxfXKmFI-30" target="DyLD08-vMLnyXxfXKmFI-94" edge="1">
          <mxGeometry relative="1" as="geometry">
            <Array as="points">
              <mxPoint x="-104" y="420" />
              <mxPoint x="-180" y="420" />
              <mxPoint x="-180" y="605" />
              <mxPoint x="184" y="605" />
            </Array>
          </mxGeometry>
        </mxCell>
        <mxCell id="DyLD08-vMLnyXxfXKmFI-30" value="Item&lt;br&gt;Collection" style="rounded=0;whiteSpace=wrap;html=1;fontSize=16;" parent="1" vertex="1">
          <mxGeometry x="-134" y="276" width="120" height="60" as="geometry" />
        </mxCell>
        <mxCell id="DyLD08-vMLnyXxfXKmFI-33" value="" style="endArrow=classic;startArrow=classic;html=1;rounded=0;fontSize=12;curved=1;startSize=8;endSize=8;exitX=1;exitY=0.5;exitDx=0;exitDy=0;entryX=0;entryY=0.5;entryDx=0;entryDy=0;" parent="1" source="DyLD08-vMLnyXxfXKmFI-29" target="DyLD08-vMLnyXxfXKmFI-30" edge="1">
          <mxGeometry width="50" height="50" relative="1" as="geometry">
            <mxPoint x="-150" y="478" as="sourcePoint" />
            <mxPoint x="-100" y="428" as="targetPoint" />
          </mxGeometry>
        </mxCell>
        <mxCell id="DyLD08-vMLnyXxfXKmFI-34" value="item/&lt;br&gt;collection" style="edgeLabel;html=1;align=center;verticalAlign=middle;resizable=0;points=[];fontSize=16;" parent="DyLD08-vMLnyXxfXKmFI-33" vertex="1" connectable="0">
          <mxGeometry x="-0.1271" y="-1" relative="1" as="geometry">
            <mxPoint x="8" y="-22" as="offset" />
          </mxGeometry>
        </mxCell>
        <mxCell id="DyLD08-vMLnyXxfXKmFI-43" style="edgeStyle=orthogonalEdgeStyle;rounded=0;orthogonalLoop=1;jettySize=auto;html=1;exitX=0.25;exitY=0;exitDx=0;exitDy=0;entryX=0;entryY=0.5;entryDx=0;entryDy=0;fontSize=12;startSize=8;endSize=8;" parent="1" source="DyLD08-vMLnyXxfXKmFI-29" target="DyLD08-vMLnyXxfXKmFI-29" edge="1">
          <mxGeometry relative="1" as="geometry">
            <Array as="points">
              <mxPoint x="-335" y="260" />
              <mxPoint x="-384" y="260" />
              <mxPoint x="-384" y="306" />
            </Array>
          </mxGeometry>
        </mxCell>
        <mxCell id="DyLD08-vMLnyXxfXKmFI-45" value="edit /&amp;nbsp;&lt;br&gt;delete" style="edgeLabel;html=1;align=center;verticalAlign=middle;resizable=0;points=[];fontSize=16;" parent="DyLD08-vMLnyXxfXKmFI-43" vertex="1" connectable="0">
          <mxGeometry x="-0.1897" relative="1" as="geometry">
            <mxPoint x="-40" y="20" as="offset" />
          </mxGeometry>
        </mxCell>
        <mxCell id="DyLD08-vMLnyXxfXKmFI-54" style="edgeStyle=none;curved=1;rounded=0;orthogonalLoop=1;jettySize=auto;html=1;exitX=0.5;exitY=1;exitDx=0;exitDy=0;fontSize=12;startSize=8;endSize=8;" parent="1" source="DyLD08-vMLnyXxfXKmFI-46" target="DyLD08-vMLnyXxfXKmFI-29" edge="1">
          <mxGeometry relative="1" as="geometry" />
        </mxCell>
        <mxCell id="DyLD08-vMLnyXxfXKmFI-55" value="item" style="edgeLabel;html=1;align=center;verticalAlign=middle;resizable=0;points=[];fontSize=16;" parent="DyLD08-vMLnyXxfXKmFI-54" vertex="1" connectable="0">
          <mxGeometry x="0.1415" y="3" relative="1" as="geometry">
            <mxPoint x="-6" as="offset" />
          </mxGeometry>
        </mxCell>
        <mxCell id="mo2YGIKd-5UnRuoaPbzB-9" style="edgeStyle=orthogonalEdgeStyle;rounded=0;orthogonalLoop=1;jettySize=auto;html=1;exitX=0.75;exitY=0;exitDx=0;exitDy=0;entryX=0;entryY=0.5;entryDx=0;entryDy=0;" parent="1" source="DyLD08-vMLnyXxfXKmFI-46" target="mo2YGIKd-5UnRuoaPbzB-4" edge="1">
          <mxGeometry relative="1" as="geometry" />
        </mxCell>
        <mxCell id="mo2YGIKd-5UnRuoaPbzB-11" value="Text" style="edgeLabel;html=1;align=center;verticalAlign=middle;resizable=0;points=[];" parent="mo2YGIKd-5UnRuoaPbzB-9" vertex="1" connectable="0">
          <mxGeometry x="-0.5138" relative="1" as="geometry">
            <mxPoint y="-30" as="offset" />
          </mxGeometry>
        </mxCell>
        <mxCell id="mo2YGIKd-5UnRuoaPbzB-12" value="&lt;font style=&quot;font-size: 16px;&quot;&gt;catalogue-supplier-all&lt;/font&gt;" style="edgeLabel;html=1;align=center;verticalAlign=middle;resizable=0;points=[];" parent="mo2YGIKd-5UnRuoaPbzB-9" vertex="1" connectable="0">
          <mxGeometry x="-0.1625" y="-4" relative="1" as="geometry">
            <mxPoint x="31" as="offset" />
          </mxGeometry>
        </mxCell>
        <mxCell id="xEfoK72YNDzqv8GyqFjA-4" style="edgeStyle=orthogonalEdgeStyle;rounded=0;orthogonalLoop=1;jettySize=auto;html=1;exitX=0.5;exitY=0;exitDx=0;exitDy=0;entryX=0;entryY=0.5;entryDx=0;entryDy=0;fontSize=12;startSize=8;endSize=8;" parent="1" source="DyLD08-vMLnyXxfXKmFI-46" target="mo2YGIKd-5UnRuoaPbzB-3" edge="1">
          <mxGeometry relative="1" as="geometry" />
        </mxCell>
        <mxCell id="DyLD08-vMLnyXxfXKmFI-46" value="Catalogue" style="rounded=0;whiteSpace=wrap;html=1;fontSize=16;" parent="1" vertex="1">
          <mxGeometry x="-365" y="55" width="120" height="60" as="geometry" />
        </mxCell>
        <mxCell id="DyLD08-vMLnyXxfXKmFI-47" style="edgeStyle=orthogonalEdgeStyle;rounded=0;orthogonalLoop=1;jettySize=auto;html=1;exitX=0.25;exitY=0;exitDx=0;exitDy=0;entryX=0;entryY=0.5;entryDx=0;entryDy=0;fontSize=12;startSize=8;endSize=8;" parent="1" source="DyLD08-vMLnyXxfXKmFI-46" target="DyLD08-vMLnyXxfXKmFI-46" edge="1">
          <mxGeometry relative="1" as="geometry">
            <Array as="points">
              <mxPoint x="-335" y="39" />
              <mxPoint x="-384" y="39" />
              <mxPoint x="-384" y="85" />
            </Array>
          </mxGeometry>
        </mxCell>
        <mxCell id="DyLD08-vMLnyXxfXKmFI-48" value="edit /&amp;nbsp;&lt;br&gt;delete" style="edgeLabel;html=1;align=center;verticalAlign=middle;resizable=0;points=[];fontSize=16;" parent="DyLD08-vMLnyXxfXKmFI-47" vertex="1" connectable="0">
          <mxGeometry x="-0.1897" relative="1" as="geometry">
            <mxPoint x="-40" y="20" as="offset" />
          </mxGeometry>
        </mxCell>
        <mxCell id="DyLD08-vMLnyXxfXKmFI-49" style="edgeStyle=orthogonalEdgeStyle;rounded=0;orthogonalLoop=1;jettySize=auto;html=1;exitX=0.75;exitY=0;exitDx=0;exitDy=0;entryX=1;entryY=0.5;entryDx=0;entryDy=0;fontSize=12;startSize=8;endSize=8;" parent="1" source="DyLD08-vMLnyXxfXKmFI-2" target="DyLD08-vMLnyXxfXKmFI-2" edge="1">
          <mxGeometry relative="1" as="geometry" />
        </mxCell>
        <mxCell id="DyLD08-vMLnyXxfXKmFI-50" value="&lt;span style=&quot;color: rgb(0, 0, 0); font-family: Helvetica; font-size: 16px; font-style: normal; font-variant-ligatures: normal; font-variant-caps: normal; font-weight: 400; letter-spacing: normal; orphans: 2; text-align: center; text-indent: 0px; text-transform: none; widows: 2; word-spacing: 0px; -webkit-text-stroke-width: 0px; background-color: rgb(255, 255, 255); text-decoration-thickness: initial; text-decoration-style: initial; text-decoration-color: initial; float: none; display: inline !important;&quot;&gt;add-catalogue&lt;/span&gt;" style="text;whiteSpace=wrap;html=1;fontSize=16;" parent="1" vertex="1">
          <mxGeometry x="-69.99662597656251" y="6.996687011718748" width="167" height="41" as="geometry" />
        </mxCell>
        <mxCell id="DyLD08-vMLnyXxfXKmFI-51" style="edgeStyle=orthogonalEdgeStyle;rounded=0;orthogonalLoop=1;jettySize=auto;html=1;exitX=0.75;exitY=0;exitDx=0;exitDy=0;entryX=1;entryY=0.5;entryDx=0;entryDy=0;fontSize=12;startSize=8;endSize=8;" parent="1" source="DyLD08-vMLnyXxfXKmFI-30" target="DyLD08-vMLnyXxfXKmFI-30" edge="1">
          <mxGeometry relative="1" as="geometry" />
        </mxCell>
        <mxCell id="DyLD08-vMLnyXxfXKmFI-53" value="add-item" style="edgeLabel;html=1;align=center;verticalAlign=middle;resizable=0;points=[];fontSize=16;" parent="DyLD08-vMLnyXxfXKmFI-51" vertex="1" connectable="0">
          <mxGeometry x="-0.3667" y="1" relative="1" as="geometry">
            <mxPoint x="4" y="-12" as="offset" />
          </mxGeometry>
        </mxCell>
        <mxCell id="DyLD08-vMLnyXxfXKmFI-82" value="" style="group" parent="1" vertex="1" connectable="0">
          <mxGeometry x="135" y="256" width="370" height="76" as="geometry" />
        </mxCell>
        <mxCell id="DyLD08-vMLnyXxfXKmFI-74" value="Warehouse" style="rounded=0;whiteSpace=wrap;html=1;fontSize=16;" parent="DyLD08-vMLnyXxfXKmFI-82" vertex="1">
          <mxGeometry x="19" y="16" width="120" height="60" as="geometry" />
        </mxCell>
        <mxCell id="DyLD08-vMLnyXxfXKmFI-75" value="Warehouse&lt;br&gt;Collection" style="rounded=0;whiteSpace=wrap;html=1;fontSize=16;" parent="DyLD08-vMLnyXxfXKmFI-82" vertex="1">
          <mxGeometry x="250" y="16" width="120" height="60" as="geometry" />
        </mxCell>
        <mxCell id="DyLD08-vMLnyXxfXKmFI-76" value="" style="endArrow=classic;startArrow=classic;html=1;rounded=0;fontSize=12;curved=1;startSize=8;endSize=8;exitX=1;exitY=0.5;exitDx=0;exitDy=0;entryX=0;entryY=0.5;entryDx=0;entryDy=0;" parent="DyLD08-vMLnyXxfXKmFI-82" source="DyLD08-vMLnyXxfXKmFI-74" target="DyLD08-vMLnyXxfXKmFI-75" edge="1">
          <mxGeometry width="50" height="50" relative="1" as="geometry">
            <mxPoint x="234" y="218" as="sourcePoint" />
            <mxPoint x="284" y="168" as="targetPoint" />
          </mxGeometry>
        </mxCell>
        <mxCell id="DyLD08-vMLnyXxfXKmFI-77" value="item/&lt;br&gt;collection" style="edgeLabel;html=1;align=center;verticalAlign=middle;resizable=0;points=[];fontSize=16;" parent="DyLD08-vMLnyXxfXKmFI-76" vertex="1" connectable="0">
          <mxGeometry x="-0.1271" y="-1" relative="1" as="geometry">
            <mxPoint x="8" y="-22" as="offset" />
          </mxGeometry>
        </mxCell>
        <mxCell id="DyLD08-vMLnyXxfXKmFI-78" style="edgeStyle=orthogonalEdgeStyle;rounded=0;orthogonalLoop=1;jettySize=auto;html=1;exitX=0.25;exitY=0;exitDx=0;exitDy=0;entryX=0;entryY=0.5;entryDx=0;entryDy=0;fontSize=12;startSize=8;endSize=8;" parent="DyLD08-vMLnyXxfXKmFI-82" source="DyLD08-vMLnyXxfXKmFI-74" target="DyLD08-vMLnyXxfXKmFI-74" edge="1">
          <mxGeometry relative="1" as="geometry">
            <Array as="points">
              <mxPoint x="49" />
              <mxPoint />
              <mxPoint y="46" />
            </Array>
          </mxGeometry>
        </mxCell>
        <mxCell id="DyLD08-vMLnyXxfXKmFI-79" value="edit /&amp;nbsp;&lt;br&gt;delete" style="edgeLabel;html=1;align=center;verticalAlign=middle;resizable=0;points=[];fontSize=16;" parent="DyLD08-vMLnyXxfXKmFI-78" vertex="1" connectable="0">
          <mxGeometry x="-0.1897" relative="1" as="geometry">
            <mxPoint x="-40" y="20" as="offset" />
          </mxGeometry>
        </mxCell>
        <mxCell id="DyLD08-vMLnyXxfXKmFI-80" style="edgeStyle=orthogonalEdgeStyle;rounded=0;orthogonalLoop=1;jettySize=auto;html=1;exitX=0.75;exitY=0;exitDx=0;exitDy=0;entryX=1;entryY=0.5;entryDx=0;entryDy=0;fontSize=12;startSize=8;endSize=8;" parent="DyLD08-vMLnyXxfXKmFI-82" source="DyLD08-vMLnyXxfXKmFI-75" target="DyLD08-vMLnyXxfXKmFI-75" edge="1">
          <mxGeometry relative="1" as="geometry" />
        </mxCell>
        <mxCell id="DyLD08-vMLnyXxfXKmFI-81" value="add-warehouse" style="edgeLabel;html=1;align=center;verticalAlign=middle;resizable=0;points=[];fontSize=16;" parent="DyLD08-vMLnyXxfXKmFI-80" vertex="1" connectable="0">
          <mxGeometry x="-0.3667" y="1" relative="1" as="geometry">
            <mxPoint x="26" y="-12" as="offset" />
          </mxGeometry>
        </mxCell>
        <mxCell id="DyLD08-vMLnyXxfXKmFI-83" value="" style="group" parent="1" vertex="1" connectable="0">
          <mxGeometry x="135" y="37" width="370" height="76.00000000000006" as="geometry" />
        </mxCell>
        <mxCell id="DyLD08-vMLnyXxfXKmFI-66" value="Location" style="rounded=0;whiteSpace=wrap;html=1;fontSize=16;" parent="DyLD08-vMLnyXxfXKmFI-83" vertex="1">
          <mxGeometry x="19" y="16.000000000000057" width="120" height="60" as="geometry" />
        </mxCell>
        <mxCell id="DyLD08-vMLnyXxfXKmFI-67" value="Location&lt;br&gt;Collection" style="rounded=0;whiteSpace=wrap;html=1;fontSize=16;" parent="DyLD08-vMLnyXxfXKmFI-83" vertex="1">
          <mxGeometry x="250" y="16.000000000000057" width="120" height="60" as="geometry" />
        </mxCell>
        <mxCell id="DyLD08-vMLnyXxfXKmFI-68" value="" style="endArrow=classic;startArrow=classic;html=1;rounded=0;fontSize=12;curved=1;startSize=8;endSize=8;exitX=1;exitY=0.5;exitDx=0;exitDy=0;entryX=0;entryY=0.5;entryDx=0;entryDy=0;" parent="DyLD08-vMLnyXxfXKmFI-83" source="DyLD08-vMLnyXxfXKmFI-66" target="DyLD08-vMLnyXxfXKmFI-67" edge="1">
          <mxGeometry width="50" height="50" relative="1" as="geometry">
            <mxPoint x="234" y="218.00000000000006" as="sourcePoint" />
            <mxPoint x="284" y="168.00000000000006" as="targetPoint" />
          </mxGeometry>
        </mxCell>
        <mxCell id="DyLD08-vMLnyXxfXKmFI-69" value="item/&lt;br&gt;collection" style="edgeLabel;html=1;align=center;verticalAlign=middle;resizable=0;points=[];fontSize=16;" parent="DyLD08-vMLnyXxfXKmFI-68" vertex="1" connectable="0">
          <mxGeometry x="-0.1271" y="-1" relative="1" as="geometry">
            <mxPoint x="8" y="-22" as="offset" />
          </mxGeometry>
        </mxCell>
        <mxCell id="DyLD08-vMLnyXxfXKmFI-70" style="edgeStyle=orthogonalEdgeStyle;rounded=0;orthogonalLoop=1;jettySize=auto;html=1;exitX=0.25;exitY=0;exitDx=0;exitDy=0;entryX=0;entryY=0.5;entryDx=0;entryDy=0;fontSize=12;startSize=8;endSize=8;" parent="DyLD08-vMLnyXxfXKmFI-83" source="DyLD08-vMLnyXxfXKmFI-66" target="DyLD08-vMLnyXxfXKmFI-66" edge="1">
          <mxGeometry relative="1" as="geometry">
            <Array as="points">
              <mxPoint x="49" />
              <mxPoint />
              <mxPoint y="46.00000000000006" />
            </Array>
          </mxGeometry>
        </mxCell>
        <mxCell id="DyLD08-vMLnyXxfXKmFI-71" value="edit /&amp;nbsp;&lt;br&gt;delete" style="edgeLabel;html=1;align=center;verticalAlign=middle;resizable=0;points=[];fontSize=16;" parent="DyLD08-vMLnyXxfXKmFI-70" vertex="1" connectable="0">
          <mxGeometry x="-0.1897" relative="1" as="geometry">
            <mxPoint x="-40" y="20" as="offset" />
          </mxGeometry>
        </mxCell>
        <mxCell id="DyLD08-vMLnyXxfXKmFI-72" style="edgeStyle=orthogonalEdgeStyle;rounded=0;orthogonalLoop=1;jettySize=auto;html=1;exitX=0.75;exitY=0;exitDx=0;exitDy=0;entryX=1;entryY=0.5;entryDx=0;entryDy=0;fontSize=12;startSize=8;endSize=8;" parent="DyLD08-vMLnyXxfXKmFI-83" source="DyLD08-vMLnyXxfXKmFI-67" target="DyLD08-vMLnyXxfXKmFI-67" edge="1">
          <mxGeometry relative="1" as="geometry" />
        </mxCell>
        <mxCell id="DyLD08-vMLnyXxfXKmFI-73" value="add-location" style="edgeLabel;html=1;align=center;verticalAlign=middle;resizable=0;points=[];fontSize=16;" parent="DyLD08-vMLnyXxfXKmFI-72" vertex="1" connectable="0">
          <mxGeometry x="-0.3667" y="1" relative="1" as="geometry">
            <mxPoint x="11" y="-13" as="offset" />
          </mxGeometry>
        </mxCell>
        <mxCell id="DyLD08-vMLnyXxfXKmFI-84" style="edgeStyle=orthogonalEdgeStyle;shape=connector;rounded=0;orthogonalLoop=1;jettySize=auto;html=1;exitX=0.5;exitY=0;exitDx=0;exitDy=0;entryX=0.5;entryY=1;entryDx=0;entryDy=0;labelBackgroundColor=default;strokeColor=default;align=center;verticalAlign=middle;fontFamily=Helvetica;fontSize=12;fontColor=default;endArrow=classic;startSize=8;endSize=8;" parent="1" source="DyLD08-vMLnyXxfXKmFI-74" target="DyLD08-vMLnyXxfXKmFI-66" edge="1">
          <mxGeometry relative="1" as="geometry" />
        </mxCell>
        <mxCell id="DyLD08-vMLnyXxfXKmFI-85" value="&lt;font style=&quot;font-size: 16px;&quot;&gt;location&lt;/font&gt;" style="edgeLabel;html=1;align=center;verticalAlign=middle;resizable=0;points=[];fontFamily=Helvetica;fontSize=12;fontColor=default;" parent="DyLD08-vMLnyXxfXKmFI-84" vertex="1" connectable="0">
          <mxGeometry x="-0.0096" relative="1" as="geometry">
            <mxPoint x="-28" y="-2" as="offset" />
          </mxGeometry>
        </mxCell>
        <mxCell id="DyLD08-vMLnyXxfXKmFI-86" style="edgeStyle=orthogonalEdgeStyle;shape=connector;rounded=0;orthogonalLoop=1;jettySize=auto;html=1;exitX=0.75;exitY=1;exitDx=0;exitDy=0;entryX=0.75;entryY=0;entryDx=0;entryDy=0;labelBackgroundColor=default;strokeColor=default;align=center;verticalAlign=middle;fontFamily=Helvetica;fontSize=12;fontColor=default;endArrow=classic;startSize=8;endSize=8;" parent="1" source="DyLD08-vMLnyXxfXKmFI-66" target="DyLD08-vMLnyXxfXKmFI-74" edge="1">
          <mxGeometry relative="1" as="geometry" />
        </mxCell>
        <mxCell id="DyLD08-vMLnyXxfXKmFI-87" value="&lt;font style=&quot;font-size: 16px;&quot;&gt;warehouse&lt;/font&gt;" style="edgeLabel;html=1;align=center;verticalAlign=middle;resizable=0;points=[];fontFamily=Helvetica;fontSize=12;fontColor=default;" parent="DyLD08-vMLnyXxfXKmFI-86" vertex="1" connectable="0">
          <mxGeometry x="-0.0831" y="-1" relative="1" as="geometry">
            <mxPoint x="7" y="3" as="offset" />
          </mxGeometry>
        </mxCell>
        <mxCell id="DyLD08-vMLnyXxfXKmFI-88" style="edgeStyle=orthogonalEdgeStyle;shape=connector;rounded=0;orthogonalLoop=1;jettySize=auto;html=1;exitX=0.25;exitY=0;exitDx=0;exitDy=0;entryX=0.25;entryY=1;entryDx=0;entryDy=0;labelBackgroundColor=default;strokeColor=default;align=center;verticalAlign=middle;fontFamily=Helvetica;fontSize=12;fontColor=default;endArrow=classic;startSize=8;endSize=8;" parent="1" source="DyLD08-vMLnyXxfXKmFI-75" target="DyLD08-vMLnyXxfXKmFI-67" edge="1">
          <mxGeometry relative="1" as="geometry" />
        </mxCell>
        <mxCell id="DyLD08-vMLnyXxfXKmFI-89" value="&lt;font style=&quot;font-size: 16px;&quot;&gt;locations-all&lt;/font&gt;" style="edgeLabel;html=1;align=center;verticalAlign=middle;resizable=0;points=[];fontFamily=Helvetica;fontSize=12;fontColor=default;" parent="DyLD08-vMLnyXxfXKmFI-88" vertex="1" connectable="0">
          <mxGeometry x="-0.0507" relative="1" as="geometry">
            <mxPoint x="-11" y="-1" as="offset" />
          </mxGeometry>
        </mxCell>
        <mxCell id="DyLD08-vMLnyXxfXKmFI-90" style="edgeStyle=orthogonalEdgeStyle;shape=connector;rounded=0;orthogonalLoop=1;jettySize=auto;html=1;exitX=0.5;exitY=1;exitDx=0;exitDy=0;entryX=0.5;entryY=0;entryDx=0;entryDy=0;labelBackgroundColor=default;strokeColor=default;align=center;verticalAlign=middle;fontFamily=Helvetica;fontSize=12;fontColor=default;endArrow=classic;startSize=8;endSize=8;" parent="1" source="DyLD08-vMLnyXxfXKmFI-67" target="DyLD08-vMLnyXxfXKmFI-75" edge="1">
          <mxGeometry relative="1" as="geometry" />
        </mxCell>
        <mxCell id="DyLD08-vMLnyXxfXKmFI-91" value="&lt;font style=&quot;font-size: 16px;&quot;&gt;warehouses-all&lt;/font&gt;" style="edgeLabel;html=1;align=center;verticalAlign=middle;resizable=0;points=[];fontFamily=Helvetica;fontSize=12;fontColor=default;" parent="DyLD08-vMLnyXxfXKmFI-90" vertex="1" connectable="0">
          <mxGeometry x="-0.2211" y="-2" relative="1" as="geometry">
            <mxPoint x="16" y="-3" as="offset" />
          </mxGeometry>
        </mxCell>
        <mxCell id="DyLD08-vMLnyXxfXKmFI-106" style="edgeStyle=orthogonalEdgeStyle;shape=connector;rounded=0;orthogonalLoop=1;jettySize=auto;html=1;exitX=0.5;exitY=0;exitDx=0;exitDy=0;labelBackgroundColor=default;strokeColor=default;align=center;verticalAlign=middle;fontFamily=Helvetica;fontSize=12;fontColor=default;endArrow=classic;startSize=8;endSize=8;entryX=0.5;entryY=1;entryDx=0;entryDy=0;" parent="1" source="DyLD08-vMLnyXxfXKmFI-93" target="DyLD08-vMLnyXxfXKmFI-29" edge="1">
          <mxGeometry relative="1" as="geometry">
            <mxPoint x="-85.066650390625" y="360" as="targetPoint" />
            <Array as="points">
              <mxPoint x="-47" y="360" />
              <mxPoint x="-305" y="360" />
            </Array>
          </mxGeometry>
        </mxCell>
        <mxCell id="DyLD08-vMLnyXxfXKmFI-107" value="&lt;font style=&quot;font-size: 16px;&quot;&gt;item&lt;/font&gt;" style="edgeLabel;html=1;align=center;verticalAlign=middle;resizable=0;points=[];fontFamily=Helvetica;fontSize=12;fontColor=default;" parent="DyLD08-vMLnyXxfXKmFI-106" vertex="1" connectable="0">
          <mxGeometry x="-0.0084" y="-2" relative="1" as="geometry">
            <mxPoint x="-86" y="12" as="offset" />
          </mxGeometry>
        </mxCell>
        <mxCell id="DyLD08-vMLnyXxfXKmFI-108" style="edgeStyle=orthogonalEdgeStyle;shape=connector;rounded=0;orthogonalLoop=1;jettySize=auto;html=1;entryX=0.5;entryY=1;entryDx=0;entryDy=0;labelBackgroundColor=default;strokeColor=default;align=center;verticalAlign=middle;fontFamily=Helvetica;fontSize=12;fontColor=default;endArrow=classic;startSize=8;endSize=8;" parent="1" source="DyLD08-vMLnyXxfXKmFI-93" target="DyLD08-vMLnyXxfXKmFI-74" edge="1">
          <mxGeometry relative="1" as="geometry">
            <Array as="points">
              <mxPoint x="-47" y="360" />
              <mxPoint x="214" y="360" />
            </Array>
          </mxGeometry>
        </mxCell>
        <mxCell id="DyLD08-vMLnyXxfXKmFI-109" value="&lt;font style=&quot;font-size: 16px;&quot;&gt;warehouse&lt;/font&gt;" style="edgeLabel;html=1;align=center;verticalAlign=middle;resizable=0;points=[];fontFamily=Helvetica;fontSize=12;fontColor=default;" parent="DyLD08-vMLnyXxfXKmFI-108" vertex="1" connectable="0">
          <mxGeometry x="0.6182" y="3" relative="1" as="geometry">
            <mxPoint x="-31" y="13" as="offset" />
          </mxGeometry>
        </mxCell>
        <mxCell id="mo2YGIKd-5UnRuoaPbzB-19" style="edgeStyle=orthogonalEdgeStyle;rounded=0;orthogonalLoop=1;jettySize=auto;html=1;exitX=0.25;exitY=1;exitDx=0;exitDy=0;entryX=0;entryY=0.5;entryDx=0;entryDy=0;" parent="1" source="DyLD08-vMLnyXxfXKmFI-93" target="mo2YGIKd-5UnRuoaPbzB-6" edge="1">
          <mxGeometry relative="1" as="geometry" />
        </mxCell>
        <mxCell id="mo2YGIKd-5UnRuoaPbzB-25" style="edgeStyle=orthogonalEdgeStyle;rounded=0;orthogonalLoop=1;jettySize=auto;html=1;exitX=0.75;exitY=1;exitDx=0;exitDy=0;entryX=0.25;entryY=0;entryDx=0;entryDy=0;" parent="1" source="DyLD08-vMLnyXxfXKmFI-93" target="mo2YGIKd-5UnRuoaPbzB-5" edge="1">
          <mxGeometry relative="1" as="geometry" />
        </mxCell>
        <mxCell id="mo2YGIKd-5UnRuoaPbzB-26" value="&lt;font style=&quot;font-size: 16px;&quot;&gt;stock-warehouse-all&lt;/font&gt;" style="edgeLabel;html=1;align=center;verticalAlign=middle;resizable=0;points=[];" parent="mo2YGIKd-5UnRuoaPbzB-25" vertex="1" connectable="0">
          <mxGeometry x="0.0253" y="2" relative="1" as="geometry">
            <mxPoint as="offset" />
          </mxGeometry>
        </mxCell>
        <mxCell id="DyLD08-vMLnyXxfXKmFI-93" value="Stock" style="rounded=0;whiteSpace=wrap;html=1;fontSize=16;" parent="1" vertex="1">
          <mxGeometry x="-107" y="525" width="120" height="60" as="geometry" />
        </mxCell>
        <mxCell id="DyLD08-vMLnyXxfXKmFI-118" style="edgeStyle=orthogonalEdgeStyle;shape=connector;rounded=0;orthogonalLoop=1;jettySize=auto;html=1;exitX=0.5;exitY=0;exitDx=0;exitDy=0;entryX=0.25;entryY=1;entryDx=0;entryDy=0;labelBackgroundColor=default;strokeColor=default;align=center;verticalAlign=middle;fontFamily=Helvetica;fontSize=12;fontColor=default;endArrow=classic;startSize=8;endSize=8;" parent="1" source="DyLD08-vMLnyXxfXKmFI-94" target="DyLD08-vMLnyXxfXKmFI-75" edge="1">
          <mxGeometry relative="1" as="geometry">
            <Array as="points">
              <mxPoint x="184" y="410" />
              <mxPoint x="415" y="410" />
            </Array>
          </mxGeometry>
        </mxCell>
        <mxCell id="DyLD08-vMLnyXxfXKmFI-119" value="&lt;font style=&quot;font-size: 16px;&quot;&gt;warehouses-all&lt;/font&gt;" style="edgeLabel;html=1;align=center;verticalAlign=middle;resizable=0;points=[];fontFamily=Helvetica;fontSize=12;fontColor=default;" parent="DyLD08-vMLnyXxfXKmFI-118" vertex="1" connectable="0">
          <mxGeometry x="0.149" y="4" relative="1" as="geometry">
            <mxPoint x="7" y="-6" as="offset" />
          </mxGeometry>
        </mxCell>
        <mxCell id="DyLD08-vMLnyXxfXKmFI-94" value="Stock&lt;br&gt;Collection" style="rounded=0;whiteSpace=wrap;html=1;fontSize=16;" parent="1" vertex="1">
          <mxGeometry x="124" y="525" width="120" height="60" as="geometry" />
        </mxCell>
        <mxCell id="DyLD08-vMLnyXxfXKmFI-95" value="" style="endArrow=classic;startArrow=classic;html=1;rounded=0;fontSize=12;curved=1;startSize=8;endSize=8;exitX=1;exitY=0.5;exitDx=0;exitDy=0;entryX=0;entryY=0.5;entryDx=0;entryDy=0;" parent="1" source="DyLD08-vMLnyXxfXKmFI-93" target="DyLD08-vMLnyXxfXKmFI-94" edge="1">
          <mxGeometry width="50" height="50" relative="1" as="geometry">
            <mxPoint x="108" y="727" as="sourcePoint" />
            <mxPoint x="158" y="677" as="targetPoint" />
          </mxGeometry>
        </mxCell>
        <mxCell id="DyLD08-vMLnyXxfXKmFI-96" value="item/&lt;br&gt;collection" style="edgeLabel;html=1;align=center;verticalAlign=middle;resizable=0;points=[];fontSize=16;" parent="DyLD08-vMLnyXxfXKmFI-95" vertex="1" connectable="0">
          <mxGeometry x="-0.1271" y="-1" relative="1" as="geometry">
            <mxPoint x="8" y="-22" as="offset" />
          </mxGeometry>
        </mxCell>
        <mxCell id="DyLD08-vMLnyXxfXKmFI-97" style="edgeStyle=orthogonalEdgeStyle;rounded=0;orthogonalLoop=1;jettySize=auto;html=1;exitX=0.25;exitY=0;exitDx=0;exitDy=0;entryX=0;entryY=0.5;entryDx=0;entryDy=0;fontSize=12;startSize=8;endSize=8;" parent="1" source="DyLD08-vMLnyXxfXKmFI-93" target="DyLD08-vMLnyXxfXKmFI-93" edge="1">
          <mxGeometry relative="1" as="geometry">
            <Array as="points">
              <mxPoint x="-77" y="509" />
              <mxPoint x="-126" y="509" />
              <mxPoint x="-126" y="555" />
            </Array>
          </mxGeometry>
        </mxCell>
        <mxCell id="DyLD08-vMLnyXxfXKmFI-98" value="edit /&amp;nbsp;&lt;br&gt;delete" style="edgeLabel;html=1;align=center;verticalAlign=middle;resizable=0;points=[];fontSize=16;" parent="DyLD08-vMLnyXxfXKmFI-97" vertex="1" connectable="0">
          <mxGeometry x="-0.1897" relative="1" as="geometry">
            <mxPoint x="-40" y="20" as="offset" />
          </mxGeometry>
        </mxCell>
        <mxCell id="DyLD08-vMLnyXxfXKmFI-99" style="edgeStyle=orthogonalEdgeStyle;rounded=0;orthogonalLoop=1;jettySize=auto;html=1;exitX=0.75;exitY=0;exitDx=0;exitDy=0;entryX=1;entryY=0.5;entryDx=0;entryDy=0;fontSize=12;startSize=8;endSize=8;" parent="1" source="DyLD08-vMLnyXxfXKmFI-94" target="DyLD08-vMLnyXxfXKmFI-94" edge="1">
          <mxGeometry relative="1" as="geometry" />
        </mxCell>
        <mxCell id="DyLD08-vMLnyXxfXKmFI-100" value="add-stock" style="edgeLabel;html=1;align=center;verticalAlign=middle;resizable=0;points=[];fontSize=16;" parent="DyLD08-vMLnyXxfXKmFI-99" vertex="1" connectable="0">
          <mxGeometry x="-0.3667" y="1" relative="1" as="geometry">
            <mxPoint x="11" y="-13" as="offset" />
          </mxGeometry>
        </mxCell>
        <mxCell id="DyLD08-vMLnyXxfXKmFI-112" style="edgeStyle=orthogonalEdgeStyle;shape=connector;rounded=0;orthogonalLoop=1;jettySize=auto;html=1;exitX=0.5;exitY=1;exitDx=0;exitDy=0;entryX=0.5;entryY=1;entryDx=0;entryDy=0;labelBackgroundColor=default;strokeColor=default;align=center;verticalAlign=middle;fontFamily=Helvetica;fontSize=12;fontColor=default;endArrow=classic;startSize=8;endSize=8;" parent="1" source="DyLD08-vMLnyXxfXKmFI-75" target="DyLD08-vMLnyXxfXKmFI-94" edge="1">
          <mxGeometry relative="1" as="geometry">
            <Array as="points">
              <mxPoint x="440" y="332" />
              <mxPoint x="440" y="605" />
              <mxPoint x="184" y="605" />
            </Array>
          </mxGeometry>
        </mxCell>
        <mxCell id="DyLD08-vMLnyXxfXKmFI-113" value="&lt;font style=&quot;font-size: 16px;&quot;&gt;stock-all&lt;/font&gt;" style="edgeLabel;html=1;align=center;verticalAlign=middle;resizable=0;points=[];fontFamily=Helvetica;fontSize=12;fontColor=default;" parent="DyLD08-vMLnyXxfXKmFI-112" vertex="1" connectable="0">
          <mxGeometry x="0.936" y="1" relative="1" as="geometry">
            <mxPoint x="1" y="18" as="offset" />
          </mxGeometry>
        </mxCell>
        <mxCell id="DyLD08-vMLnyXxfXKmFI-114" style="edgeStyle=orthogonalEdgeStyle;shape=connector;rounded=0;orthogonalLoop=1;jettySize=auto;html=1;exitX=0.75;exitY=1;exitDx=0;exitDy=0;entryX=0.5;entryY=1;entryDx=0;entryDy=0;labelBackgroundColor=default;strokeColor=default;align=center;verticalAlign=middle;fontFamily=Helvetica;fontSize=12;fontColor=default;endArrow=classic;startSize=8;endSize=8;" parent="1" source="DyLD08-vMLnyXxfXKmFI-74" target="DyLD08-vMLnyXxfXKmFI-94" edge="1">
          <mxGeometry relative="1" as="geometry">
            <Array as="points">
              <mxPoint x="244" y="428" />
              <mxPoint x="440" y="428" />
              <mxPoint x="440" y="605" />
              <mxPoint x="184" y="605" />
            </Array>
          </mxGeometry>
        </mxCell>
        <mxCell id="DyLD08-vMLnyXxfXKmFI-116" style="edgeStyle=orthogonalEdgeStyle;shape=connector;rounded=0;orthogonalLoop=1;jettySize=auto;html=1;exitX=0.5;exitY=0;exitDx=0;exitDy=0;entryX=0.875;entryY=0.997;entryDx=0;entryDy=0;entryPerimeter=0;labelBackgroundColor=default;strokeColor=default;align=center;verticalAlign=middle;fontFamily=Helvetica;fontSize=12;fontColor=default;endArrow=classic;startSize=8;endSize=8;" parent="1" source="DyLD08-vMLnyXxfXKmFI-94" target="DyLD08-vMLnyXxfXKmFI-30" edge="1">
          <mxGeometry relative="1" as="geometry">
            <Array as="points">
              <mxPoint x="184" y="410" />
              <mxPoint x="-29" y="410" />
            </Array>
          </mxGeometry>
        </mxCell>
        <mxCell id="DyLD08-vMLnyXxfXKmFI-117" value="&lt;font style=&quot;font-size: 16px;&quot;&gt;items-all&lt;/font&gt;" style="edgeLabel;html=1;align=center;verticalAlign=middle;resizable=0;points=[];fontFamily=Helvetica;fontSize=12;fontColor=default;" parent="DyLD08-vMLnyXxfXKmFI-116" vertex="1" connectable="0">
          <mxGeometry x="0.0533" y="-2" relative="1" as="geometry">
            <mxPoint as="offset" />
          </mxGeometry>
        </mxCell>
        <mxCell id="mo2YGIKd-5UnRuoaPbzB-17" style="edgeStyle=orthogonalEdgeStyle;rounded=0;orthogonalLoop=1;jettySize=auto;html=1;exitX=1;exitY=0.5;exitDx=0;exitDy=0;entryX=0.25;entryY=0;entryDx=0;entryDy=0;" parent="1" source="mo2YGIKd-5UnRuoaPbzB-3" target="DyLD08-vMLnyXxfXKmFI-2" edge="1">
          <mxGeometry relative="1" as="geometry" />
        </mxCell>
        <mxCell id="mo2YGIKd-5UnRuoaPbzB-3" value="Catalogue&lt;div&gt;Item&lt;div&gt;Collection&lt;/div&gt;&lt;/div&gt;" style="rounded=0;whiteSpace=wrap;html=1;fontSize=16;" parent="1" vertex="1">
          <mxGeometry x="-245" y="-250" width="120" height="60" as="geometry" />
        </mxCell>
        <mxCell id="mo2YGIKd-5UnRuoaPbzB-13" style="edgeStyle=orthogonalEdgeStyle;rounded=0;orthogonalLoop=1;jettySize=auto;html=1;exitX=1;exitY=0.5;exitDx=0;exitDy=0;entryX=0.25;entryY=0;entryDx=0;entryDy=0;" parent="1" source="mo2YGIKd-5UnRuoaPbzB-4" target="DyLD08-vMLnyXxfXKmFI-2" edge="1">
          <mxGeometry relative="1" as="geometry" />
        </mxCell>
        <mxCell id="mo2YGIKd-5UnRuoaPbzB-14" value="&lt;font style=&quot;font-size: 16px;&quot;&gt;catalogue-all&lt;/font&gt;" style="edgeLabel;html=1;align=center;verticalAlign=middle;resizable=0;points=[];" parent="mo2YGIKd-5UnRuoaPbzB-13" vertex="1" connectable="0">
          <mxGeometry x="0.0432" relative="1" as="geometry">
            <mxPoint x="-2" as="offset" />
          </mxGeometry>
        </mxCell>
        <mxCell id="mo2YGIKd-5UnRuoaPbzB-4" value="Catalogue&lt;div&gt;Supplier&lt;div&gt;Collection&lt;/div&gt;&lt;/div&gt;" style="rounded=0;whiteSpace=wrap;html=1;fontSize=16;" parent="1" vertex="1">
          <mxGeometry x="-245" y="-130" width="120" height="60" as="geometry" />
        </mxCell>
        <mxCell id="mo2YGIKd-5UnRuoaPbzB-24" style="edgeStyle=orthogonalEdgeStyle;rounded=0;orthogonalLoop=1;jettySize=auto;html=1;exitX=0.5;exitY=0;exitDx=0;exitDy=0;entryX=0.5;entryY=1;entryDx=0;entryDy=0;" parent="1" source="mo2YGIKd-5UnRuoaPbzB-5" target="DyLD08-vMLnyXxfXKmFI-94" edge="1">
          <mxGeometry relative="1" as="geometry" />
        </mxCell>
        <mxCell id="mo2YGIKd-5UnRuoaPbzB-5" value="Stock&lt;div&gt;Warehouse&lt;/div&gt;&lt;div&gt;Collection&lt;/div&gt;" style="rounded=0;whiteSpace=wrap;html=1;fontSize=16;" parent="1" vertex="1">
          <mxGeometry x="124" y="700" width="120" height="60" as="geometry" />
        </mxCell>
        <mxCell id="mo2YGIKd-5UnRuoaPbzB-21" style="edgeStyle=orthogonalEdgeStyle;rounded=0;orthogonalLoop=1;jettySize=auto;html=1;exitX=0.5;exitY=0;exitDx=0;exitDy=0;" parent="1" source="mo2YGIKd-5UnRuoaPbzB-6" target="DyLD08-vMLnyXxfXKmFI-94" edge="1">
          <mxGeometry relative="1" as="geometry">
            <Array as="points">
              <mxPoint x="14" y="606" />
              <mxPoint x="184" y="606" />
            </Array>
          </mxGeometry>
        </mxCell>
        <mxCell id="mo2YGIKd-5UnRuoaPbzB-6" value="Stock&lt;div&gt;Item&lt;/div&gt;&lt;div&gt;Collection&lt;/div&gt;" style="rounded=0;whiteSpace=wrap;html=1;fontSize=16;" parent="1" vertex="1">
          <mxGeometry x="-46.5" y="700" width="120" height="60" as="geometry" />
        </mxCell>
        <mxCell id="mo2YGIKd-5UnRuoaPbzB-22" style="edgeStyle=orthogonalEdgeStyle;rounded=0;orthogonalLoop=1;jettySize=auto;html=1;exitX=0.75;exitY=1;exitDx=0;exitDy=0;entryX=1;entryY=0.5;entryDx=0;entryDy=0;" parent="1" source="DyLD08-vMLnyXxfXKmFI-75" target="mo2YGIKd-5UnRuoaPbzB-5" edge="1">
          <mxGeometry relative="1" as="geometry" />
        </mxCell>
        <mxCell id="mo2YGIKd-5UnRuoaPbzB-23" value="&lt;font style=&quot;font-size: 16px;&quot;&gt;stock-warehouse-all&lt;/font&gt;" style="edgeLabel;html=1;align=center;verticalAlign=middle;resizable=0;points=[];" parent="mo2YGIKd-5UnRuoaPbzB-22" vertex="1" connectable="0">
          <mxGeometry x="0.8225" y="-2" relative="1" as="geometry">
            <mxPoint x="30" y="2" as="offset" />
          </mxGeometry>
        </mxCell>
      </root>
    </mxGraphModel>
  </diagram>
</mxfile>
